<?xml version="1.0" standalone="no"?>
<!DOCTYPE svg PUBLIC "-//W3C//DTD SVG 20010904//EN"
 "http://www.w3.org/TR/2001/REC-SVG-20010904/DTD/svg10.dtd">
<svg version="1.0" xmlns="http://www.w3.org/2000/svg"
 width="83.000000pt" height="83.000000pt" viewBox="0 0 83.000000 83.000000"
 preserveAspectRatio="xMidYMid meet">
<metadata>
Created by potrace 1.14, written by Peter Selinger 2001-2017
</metadata>
<g transform="translate(0.000000,83.000000) scale(0.100000,-0.100000)"
fill="#000000" stroke="none">
<path d="M563 805 c-57 -17 -128 -60 -165 -98 -37 -39 -83 -127 -71 -137 4 -4
33 -18 63 -31 115 -47 183 -118 205 -212 15 -65 10 -123 -14 -187 -11 -28 -17
-50 -14 -50 15 0 84 68 103 103 40 70 33 130 -27 246 -63 120 -75 159 -75 231
0 59 10 89 45 128 24 26 14 27 -50 7z"/>
<path d="M56 683 c-9 -28 -19 -64 -22 -79 -3 -15 -7 -30 -9 -34 -11 -18 -20
-116 -19 -210 1 -128 25 -202 85 -260 71 -69 154 -95 284 -90 68 3 151 2 265
-4 64 -3 149 9 163 23 6 6 -31 8 -99 5 -111 -4 -189 8 -284 43 -96 35 -224
142 -269 225 -23 42 -21 41 35 -21 55 -61 59 -63 65 -40 8 35 0 51 -25 44 -12
-4 16 28 64 74 47 44 89 80 94 81 9 0 52 -35 131 -109 43 -40 46 -46 28 -49
-20 -3 -21 -9 -21 -110 l-1 -107 27 50 c22 42 26 63 26 135 1 62 -4 95 -17
122 -26 56 -99 113 -180 143 -173 64 -264 124 -291 189 l-13 31 -17 -52z"/>
<path d="M361 352 c-12 -22 3 -42 30 -42 21 0 29 19 17 43 -11 22 -35 22 -47
-1z"/>
<path d="M349 225 c-5 -61 -1 -74 33 -95 19 -11 35 -15 38 -10 5 8 6 82 1 113
0 4 -17 7 -36 7 -24 0 -35 -5 -36 -15z"/>
</g>
</svg>
